# xmcd
#
# Track frame offsets:
#	150
#	10012
#	40464
#	58748
#	89879
#	119769
#	150252
#	190913
#	229210
#	262399
#	287629
#
# Disc length: 4224 seconds
#
# Revision: 2
# Processed by: cddbd v1.5.2PL0 Copyright (c) Steve Scherf et al.
# Submitted via: EasyCDDAExtractor 5.1.0
#
DISCID=a2107e0b
DTITLE=Heaven And Hell - Time Warner Cable Amphitheater At Tower City Clevelan
DTITLE=d Ohio 11-05-07 Source 1 Disc 1
DYEAR=2007
DGENRE=Hard Rock
TTITLE0=E5150
TTITLE1=After All (The Dead)
TTITLE2=The Mob Rules
TTITLE3=Children Of The Sea
TTITLE4=Lady Evil
TTITLE5=I
TTITLE6=The Sign Of The Southern Cross
TTITLE7=Voodoo
TTITLE8=The Devil Cried
TTITLE9=Drum Solo
TTITLE10=Computer God
EXTD=
EXTT0=
EXTT1=
EXTT2=
EXTT3=
EXTT4=
EXTT5=
EXTT6=
EXTT7=
EXTT8=
EXTT9=
EXTT10=
PLAYORDER=
